<svg width="43" height="82" viewBox="0 0 43 82" fill="none" xmlns="http://www.w3.org/2000/svg">
<path d="M27.5118 54.3263C24.7266 50.6498 21.0173 51.363 16.8925 51.9522C11.8187 52.677 7.16727 53.8026 4.84543 58.9623C2.95516 63.1629 1.4119 67.6259 3.03276 72.1643C4.24765 75.566 7.49775 78.5621 11.0374 79.447C13.3474 80.0245 15.5607 80.0245 17.9515 80.0245H17.9833C20.0006 80.0245 22.5111 80.446 24.48 80.0085C27.1664 79.4115 27.8043 77.3166 28.731 75.1159C30.4862 70.9471 30.1105 66.0601 30.1105 61.5449C30.1105 56.8862 29.8218 52.2728 29.8218 47.5569C29.8218 42.8846 30.3993 38.2941 30.3993 33.6812C30.3993 32.0999 30.191 30.3675 30.6238 28.8527C31.0167 27.4778 30.6966 25.928 31.1211 24.5697C31.5441 23.2161 31.368 21.5351 31.9071 20.2546C32.2558 19.4264 32.6739 17.7373 32.7092 16.8538C32.7546 15.7198 33.3706 14.2601 33.7358 13.1643C34.4297 11.0828 35.2481 8.75472 36.3185 6.82799C37.159 5.31511 38.9521 2.55155 40.5053 1.77498M12.4971 75.4046C12.3206 75.4443 12.1506 75.4895 11.9861 75.5376M11.9861 75.5376C10.3563 76.0143 9.27303 76.7828 7.81308 75.4688C6.7228 74.4875 6.14097 73.1621 5.27855 72.0841C3.28654 69.5941 3.83483 67.1938 3.83483 64.288C3.83483 63.169 5.1723 61.202 5.9202 60.4541C7.12796 59.2464 8.21513 57.5065 9.73803 56.6363C11.042 55.8912 12.1062 54.9897 13.6521 54.9038C14.0755 54.8803 14.5033 54.8496 14.9347 54.817M11.9861 75.5376C12.0753 75.0422 12.1859 74.5847 12.2055 74.3629M11.9861 75.5376C11.827 76.4215 11.7362 77.4258 12.3528 77.4258C13.6779 77.4258 15.3439 77.7146 16.8283 77.7146C17.5946 77.7146 18.3731 77.7548 19.1382 77.7146C19.3802 77.7018 20.579 77.5993 21.2654 77.4525M14.9347 54.817C16.1691 54.7238 17.4327 54.6151 18.7051 54.6151C20.4746 54.6151 23.988 53.9998 26.0358 54.8053M14.9347 54.817C16.451 53.8285 18.1539 53.1714 19.8601 53.1714C21.5428 53.1714 23.0329 53.6604 24.6244 53.7488C25.2015 53.7809 25.6306 54.2641 26.0358 54.8053M14.9347 54.817C13.5598 55.7132 12.3382 56.8818 11.4063 58.08C10.1342 59.7155 9.32189 61.0109 9.09635 62.8872M26.0358 54.8053C26.5732 55.0167 27.0097 55.3261 27.2872 55.7701C27.3792 55.9173 28.7282 57.024 28.5385 57.2138C28.3843 57.3679 28.0889 57.1451 27.8006 56.8538M26.0358 54.8053C26.3759 55.2597 26.6991 55.7551 27.0787 56.0588C27.1863 56.1449 27.4894 56.5394 27.8006 56.8538M27.8006 56.8538C27.8004 56.8537 27.8007 56.8539 27.8006 56.8538ZM27.8006 56.8538C27.7961 58.8734 27.7546 60.8874 27.7047 62.9007M27.8006 56.8538C27.8008 56.7333 27.8006 56.6124 27.8006 56.4919V56.8538ZM27.8006 56.8538V61.5128C27.8006 62.01 27.7641 62.4551 27.7047 62.9007M9.09635 62.8872C9.09035 62.9371 9.08477 62.9874 9.07961 63.0382M9.09635 62.8872C9.62217 63.1831 10.1028 63.5301 10.5416 63.919M9.09635 62.8872C8.98091 62.8223 8.8633 62.7598 8.74347 62.6999C7.06128 61.8588 5.50321 62.4542 5.15022 64.3201C4.50623 67.724 5.43586 71.4911 7.55641 74.2176C7.97539 74.7562 8.16598 75.2939 8.16598 74.2336C8.16598 73.3007 8.05489 72.3715 7.87724 71.4537M9.07961 63.0382C9.04819 63.3467 9.03222 63.6711 9.03222 64.0153C9.03222 64.9951 8.89963 66.8529 9.54546 67.941M9.07961 63.0382C9.41228 62.9977 10.141 64.0336 10.4322 64.5037M9.07961 63.0382C9.06276 63.0402 9.04693 63.045 9.03222 63.0528C7.96461 63.618 9.28513 67.3381 9.48137 68.0577C9.48523 68.0719 9.4891 68.086 9.49298 68.1001M9.54546 67.941C9.76158 68.3051 10.0649 68.5831 10.4895 68.713M9.54546 67.941C9.52872 67.9921 9.51121 68.0452 9.49298 68.1001M9.54546 67.941C9.65669 67.6015 9.73321 67.3536 9.75408 67.2877C10.045 66.3691 10.2523 65.4385 10.4322 64.5037M10.4895 68.713C10.5319 68.726 10.5755 68.7375 10.6203 68.7475C10.9784 68.8271 11.3095 68.8046 11.6151 68.7065M10.4895 68.713C10.5555 68.0065 10.6479 67.3065 10.7005 66.6461C10.7368 66.1909 10.7768 65.7388 10.8232 65.2894M10.4895 68.713C10.4174 69.4842 10.3768 70.2633 10.4535 71.0073M11.6151 68.7065C12.0577 68.5643 12.4466 68.2635 12.7859 67.8844M11.6151 68.7065C11.6294 68.9771 11.6345 69.2524 11.6309 69.5335C11.623 70.1558 11.7469 72.2143 11.278 72.7418C11.271 72.7496 11.2637 72.7555 11.2559 72.7596M11.6151 68.7065C11.5516 67.5093 11.3066 66.4038 10.8232 65.2894M12.7859 67.8844C12.7948 67.8744 12.8036 67.8645 12.8125 67.8544M12.7859 67.8844V72.0359C12.7859 70.6433 12.8058 69.2486 12.8125 67.8544M12.7859 67.8844V66.847M12.8125 67.8544C12.9137 67.7392 13.0104 67.6171 13.1028 67.4903M12.8125 67.8544C12.814 67.5368 12.8148 67.2193 12.8146 66.9018M13.1028 67.4903C13.1922 67.3676 13.2776 67.2406 13.3589 67.111M13.1028 67.4903C13.1987 67.6988 13.2895 67.9101 13.3755 68.1235M13.1028 67.4903C13.0114 67.2915 12.9154 67.0952 12.8146 66.9018M13.3589 67.111C13.7372 66.5088 14.0293 65.8542 14.2456 65.3467C14.5701 64.5856 16.6982 55.6238 13.5879 56.7004C12.8978 56.9393 12.5324 57.6966 12.2811 58.4862M13.3589 67.111C13.3556 66.9827 13.3518 66.8545 13.3473 66.7263C13.2768 64.6808 12.9957 62.6489 12.8019 60.6145C12.7323 59.8837 12.7859 61.9176 12.7859 62.1705V64.496M13.3589 67.111C13.3676 67.4483 13.3728 67.7859 13.3755 68.1235M12.2811 58.4862C12.108 59.0301 11.9891 59.5893 11.8555 60.005C11.3998 61.4228 11.1246 62.8461 10.9382 64.2931M12.2811 58.4862C12.2783 58.4684 12.2754 58.4507 12.2726 58.4329C11.9531 56.4522 11.5131 59.2493 11.3422 59.9087C10.9981 61.2357 10.7859 62.5801 10.5416 63.919M12.2811 58.4862C12.5991 60.4783 12.734 62.4842 12.7859 64.496M10.9382 64.2931C10.8956 64.6239 10.8576 64.9559 10.8232 65.2894M10.9382 64.2931C11.68 65.0367 12.2896 65.906 12.7859 66.847M10.9382 64.2931C10.81 64.1645 10.6778 64.0397 10.5416 63.919M10.8232 65.2894C10.7366 65.0898 10.6423 64.8898 10.5401 64.689C10.5203 64.6501 10.4829 64.5855 10.4322 64.5037M10.4535 71.0073C10.4737 71.2032 10.5021 71.3966 10.5401 71.5868C10.5594 71.6834 11.0472 72.8699 11.2559 72.7596M10.4535 71.0073C10.0851 70.0874 9.77326 69.123 9.49298 68.1001M10.4535 71.0073C10.6945 71.6091 10.9596 72.1919 11.2559 72.7596M11.2559 72.7596C11.5414 73.3068 11.8559 73.84 12.2055 74.3629M10.4322 64.5037C10.4697 64.3089 10.506 64.114 10.5416 63.919M9.49298 68.1001C9.39288 68.4016 9.27124 68.7563 9.13986 69.1134M12.2055 74.3629C12.4736 74.7638 12.7624 75.1587 13.0746 75.549C13.9291 76.6171 14.1648 70.6334 14.0371 70.1431C13.859 69.4593 13.6403 68.7809 13.3755 68.1235M12.2055 74.3629C12.2071 74.3449 12.2081 74.3286 12.2084 74.3138C12.2286 73.4263 11.7029 71.0818 12.7859 72.2284C13.4308 72.9113 13.3634 72.5356 13.3634 71.7793C13.3634 70.5621 13.3853 69.342 13.3755 68.1235M12.8146 66.9018C12.8051 66.8835 12.7955 66.8653 12.7859 66.847M12.8146 66.9018C12.814 66.0993 12.8065 65.2972 12.7859 64.496M12.7859 66.847V64.496M7.87724 71.4537C7.87251 71.4293 7.86773 71.4048 7.86291 71.3804M7.87724 71.4537V71.276M7.87724 71.4537V72.0359M7.86291 71.3804C7.84295 71.2794 7.82219 71.1784 7.8007 71.0777M7.86291 71.3804C7.87249 71.5964 7.87724 71.8148 7.87724 72.0359M7.86291 71.3804C7.8605 71.326 7.85778 71.2717 7.85475 71.2176M7.8007 71.0777C7.76311 70.9014 7.72327 70.7255 7.68149 70.5502M7.8007 71.0777C7.64109 70.6655 7.47807 70.2555 7.29975 69.8543C7.14338 69.5025 5.96542 66.445 6.30519 66.7423C6.78765 67.1645 7.09593 68.3959 7.27584 69.0328M7.8007 71.0777C7.81876 71.1243 7.83677 71.171 7.85475 71.2176M7.68149 70.5502C7.56662 70.068 7.43716 69.5897 7.29975 69.1164C7.29205 69.0899 7.28408 69.062 7.27584 69.0328M7.68149 70.5502C7.4681 70.107 7.3677 69.53 7.27584 69.0328M7.68149 70.5502C7.72448 70.6395 7.77206 70.7233 7.82507 70.8M7.27584 69.0328C7.23682 68.8216 7.19933 68.6248 7.15538 68.4587C6.91858 67.5641 6.67998 66.6142 6.38017 65.6952M7.85475 71.2176C7.86225 71.2371 7.86975 71.2566 7.87724 71.276M7.85475 71.2176C7.84692 71.0775 7.83703 70.9384 7.82507 70.8M7.87724 71.276C8.28151 72.3267 8.67603 73.3854 9.25679 74.3459C9.3845 74.5571 10.0808 75.7906 10.1711 75.0678C10.3488 73.6462 9.74586 72.1402 9.46533 70.7687C9.35561 70.2323 9.25645 69.6726 9.13986 69.1134M7.87724 71.276V70.8708M9.13986 69.1134C8.94995 68.2024 8.71378 67.2925 8.31036 66.4856C7.68633 65.2376 7.87724 67.2458 7.87724 67.6567V70.8708M9.13986 69.1134C8.75043 70.1718 8.27535 71.2509 8.02161 71.0253C7.96968 70.9792 7.9217 70.9274 7.87724 70.8708M7.87724 70.8708C7.85928 70.848 7.8419 70.8244 7.82507 70.8M7.87724 72.0359V72.5814M7.82507 70.8C7.70958 69.4645 7.40074 68.2053 6.88268 66.9027C6.76784 66.614 6.58005 66.1671 6.38017 65.6952M6.38017 65.6952C5.86728 64.4844 5.27485 63.1096 5.63146 63.8228C5.92563 64.4111 6.1682 65.0454 6.38017 65.6952ZM21.2654 77.4525C21.5089 77.4004 21.6879 77.3427 21.7369 77.2815C22.1509 76.764 24.8172 76.3105 25.4906 76.2709C25.5215 76.269 25.5515 76.2647 25.5807 76.258M21.2654 77.4525C22.8263 77.6415 24.4724 77.2385 25.5807 76.258M21.2654 77.4525C19.7093 77.2641 18.2378 76.4872 17.4681 75.1076M25.5807 76.258C26.0767 76.1444 26.3334 75.3617 26.5814 75.0517C26.6647 74.9476 26.9254 74.3828 26.9343 74.2496C26.9493 74.0256 26.4122 75.2604 26.2125 75.549C26.0306 75.8117 25.818 76.0481 25.5807 76.258ZM17.4681 75.1076C17.405 74.9945 17.3466 74.8773 17.2933 74.7561M17.4681 75.1076C17.387 75.1849 17.3324 75.044 17.2933 74.7561M17.4681 75.1076C17.5133 75.0645 17.5668 74.9537 17.6304 74.763C18.0697 73.445 17.9833 71.9243 17.9833 70.5602C17.9833 69.1026 18.0309 67.6308 18.032 66.1637M17.2933 74.7561C17.253 74.6645 17.2156 74.5705 17.1812 74.4742C16.5737 72.7731 16.5382 70.8879 16.6113 68.9725M17.2933 74.7561C17.2072 74.1209 17.1968 72.7701 17.1441 71.4676M16.6113 68.9725C16.698 66.6995 16.9376 64.3839 16.5556 62.2828C16.4042 61.4503 16.5376 63.2348 16.5235 63.4538C16.41 65.2134 16.0097 66.9113 15.6735 68.634M16.6113 68.9725C16.5107 69.2556 16.4235 69.6758 16.3952 69.8062C16.3093 70.2011 16.2386 70.6011 16.181 71.004M16.6113 68.9725C16.7058 68.7064 16.8121 68.5614 16.8925 68.8919C17.0194 69.4138 17.0857 70.2255 17.1275 71.0929M15.6735 68.634C15.6735 68.6344 15.6734 68.6348 15.6733 68.6352C15.3667 70.2065 15.017 71.7923 14.6627 73.3513C14.6155 73.5592 14.2296 75.5069 14.2296 74.4742C14.2296 72.6844 15.0795 70.5491 15.6092 68.8277C15.6331 68.75 15.6544 68.6859 15.6735 68.634ZM15.6735 68.634C15.889 68.0503 15.8241 69.0176 15.9621 69.6298C16.0644 70.0839 16.1341 70.5426 16.181 71.004M16.181 71.004C16.3279 72.4499 16.2508 73.9235 16.2508 75.3725C16.2508 75.7462 16.4614 76.8934 16.2348 77.2333C15.7074 78.0244 15.9621 75.3448 15.9621 74.394C15.9621 73.2716 16.0206 72.1264 16.181 71.004ZM17.1275 71.0929C17.1335 71.2169 17.139 71.342 17.1441 71.4676M17.1275 71.0929C17.1232 71.2149 17.1197 71.3367 17.117 71.4585C17.1158 71.5153 17.1259 71.5132 17.1441 71.4676M17.1275 71.0929C17.1741 69.7607 17.3122 68.4137 17.5069 67.0709M17.1441 71.4676C17.2431 71.2193 17.5819 69.6799 17.6304 69.341C17.647 69.2242 17.6636 69.1075 17.68 68.9907M18.032 66.1637C18.0324 65.511 18.0237 64.8593 17.9975 64.2101M18.032 66.1637C18.1458 65.0745 18.2293 63.9847 18.2644 62.8897M18.032 66.1637C17.9419 67.0255 17.8327 67.8868 17.7135 68.7499M17.9975 64.2101C17.9892 64.0059 17.9792 63.8019 17.9672 63.5982C17.9628 63.5222 17.9567 63.4319 17.9495 63.3315M17.9975 64.2101C17.8901 64.7627 17.7883 65.3184 17.6945 65.8758M17.9975 64.2101C18.0288 64.0486 18.0607 63.8874 18.0929 63.7264M17.9495 63.3315C17.8793 62.3611 17.6945 60.4396 17.6945 61.176V61.2236M17.9495 63.3315C17.9602 63.3671 17.9715 63.4025 17.9833 63.4378C18.0259 63.5658 18.0623 63.661 18.0929 63.7264M17.9495 63.3315C17.7439 62.6537 17.7147 61.9368 17.6945 61.2236M17.6945 61.2236V63.2453M17.6945 61.2236C17.6845 60.871 17.6767 60.5194 17.6509 60.1737M17.6945 63.2453V65.1382M17.6945 63.2453C17.6945 62.2312 17.6487 61.1992 17.6509 60.1737M17.6945 65.1382V65.8758M17.6945 65.1382C17.6945 63.7459 17.584 61.1385 17.4596 58.9125M17.6945 65.8758V66.3092C17.6945 66.5973 17.7174 68.047 17.7135 68.7499M17.6945 65.8758C17.6276 66.2734 17.5648 66.672 17.5069 67.0709M17.7135 68.7499C17.7115 69.1077 17.7025 69.272 17.68 68.9907M17.7135 68.7499C17.7024 68.8302 17.6912 68.9104 17.68 68.9907M17.68 68.9907C17.6795 68.9847 17.679 68.9785 17.6785 68.9721C17.6298 68.3388 17.5709 67.7049 17.5069 67.0709M17.5069 67.0709C17.3611 65.6241 17.1891 64.1763 17.0529 62.732C16.8862 60.9654 16.5396 59.2845 16.5396 57.5025C16.5396 56.7886 16.3638 55.7116 16.8925 56.9892C17.0825 57.4485 17.2785 58.1413 17.4596 58.9125M17.4596 58.9125C17.4935 59.0569 17.5269 59.2041 17.5596 59.353M17.4596 58.9125C17.4527 58.7895 17.4458 58.6677 17.4389 58.5473M17.5596 59.353C17.5918 59.4992 17.6233 59.6471 17.654 59.7957M17.5596 59.353C17.5862 59.5478 17.6102 59.7436 17.6304 59.9408C17.6383 60.0181 17.645 60.0957 17.6509 60.1737M17.5596 59.353C17.5229 59.083 17.4814 58.8147 17.4389 58.5473M17.654 59.7957C17.9219 61.0906 18.1319 62.4396 18.1987 63.2058M17.654 59.7957C17.6521 59.9216 17.6511 60.0476 17.6509 60.1737M17.654 59.7957C17.6604 59.3713 17.677 58.9485 17.7106 58.5292C17.8619 56.6372 18.2385 60.0341 18.256 60.4541C18.29 61.27 18.2904 62.0812 18.2644 62.8897M18.1987 63.2058C18.2463 63.7513 18.2213 64.0014 18.0929 63.7264M18.1987 63.2058C18.163 63.379 18.1277 63.5525 18.0929 63.7264M18.1987 63.2058C18.2205 63.1003 18.2424 62.9949 18.2644 62.8897M17.4389 58.5473C17.2845 57.5755 17.117 56.6139 17.117 55.6096C17.117 53.8969 17.2844 55.8668 17.4389 58.5473ZM18.2644 62.8897C18.3612 62.4275 18.4605 61.9683 18.5608 61.5128L18.5647 61.4947C18.6726 61.0039 19.472 57.3668 19.7799 59.4916C20.0713 61.5021 20.2418 63.4631 20.2856 65.459M20.2856 65.459C20.303 66.2537 20.3004 67.0541 20.2772 67.8652C20.2182 69.9281 19.427 71.8991 19.427 73.9449C19.427 75.1309 19.127 73.8932 19.1543 73.3193C19.2676 70.9389 19.7712 68.5468 20.1488 66.1969C20.1633 66.1071 20.2143 65.8331 20.2856 65.459ZM20.2856 65.459C20.5444 64.1018 21.0714 61.4272 21.0953 61.4487C21.9973 62.2605 21.5431 65.8642 21.4603 67.3767M21.4603 67.3767C21.4527 67.5157 21.4482 67.637 21.4482 67.7369C21.4482 69.4691 21.1968 71.1537 21.1595 72.8701C21.154 73.121 21.1502 73.301 21.1477 73.4229M21.4603 67.3767C21.262 69.0126 21.1595 70.6476 21.1595 72.3247C21.1595 72.6832 21.1524 73.1546 21.1477 73.4229M21.4603 67.3767C21.5711 66.4622 21.7119 65.5475 21.8813 64.6249C22.084 63.5215 22.3144 61.6486 22.3144 63.919C22.3144 65.0788 22.2958 66.22 22.2466 67.3573M21.1477 73.4229C21.1412 73.7411 21.1435 73.6643 21.1477 73.4229ZM22.2466 67.3573C22.1853 68.7743 22.0766 70.1852 21.8974 71.6189C21.7837 72.5278 21.4482 75.2458 21.4482 74.3299C21.4482 72.4558 21.7324 70.4493 22.0257 68.6031C22.0919 68.1866 22.1698 67.7719 22.2466 67.3573ZM22.2466 67.3573C22.428 66.3784 22.6032 65.4003 22.6032 64.4003V72.6776C22.6032 72.7383 22.6501 70.1296 22.7475 69.3891C22.8603 68.5324 22.9222 66.9546 23.1807 68.7635C23.3397 69.8765 23.3884 70.936 23.4854 72.052C23.493 72.1392 23.5058 72.2231 23.5218 72.3048M23.5218 72.3048C23.6008 72.7073 23.7581 73.0573 23.7581 73.4957C23.7581 74.2074 23.9763 72.0878 24.0308 71.3783C24.034 71.3367 24.0417 71.2679 24.0526 71.1811M23.5218 72.3048C23.6973 71.931 23.8779 71.5477 24.0526 71.1811M23.5218 72.3048C23.164 73.0669 22.8271 73.7893 22.6032 74.2496C22.3484 74.7733 22.1248 75.278 21.7625 75.6062M24.0526 71.1811C24.1203 70.6419 24.3141 69.409 24.3517 69.71C24.3804 69.9395 24.4075 70.1667 24.4328 70.3925M24.0526 71.1811C24.1842 70.905 24.3125 70.6384 24.4328 70.3925M24.4328 70.3925C24.5486 71.427 24.6244 72.4317 24.6244 73.4957C24.6244 73.6747 24.6249 73.8133 24.6259 73.9172M24.4328 70.3925C24.9867 69.2606 25.3724 68.567 25.1377 69.4052C24.8252 70.5212 24.9477 71.6607 24.7687 72.8059C24.7236 73.0947 24.6906 73.5595 24.6675 73.8664M24.6259 73.9172C24.6302 74.3383 24.6432 74.1904 24.6675 73.8664M24.6259 73.9172C24.5282 74.0332 24.4306 74.1261 24.3356 74.1855C23.8575 74.4843 23.0638 74.8629 22.6673 75.18C22.4727 75.3358 22.1332 75.481 21.7625 75.6062M24.6259 73.9172C24.6398 73.9007 24.6537 73.8837 24.6675 73.8664M24.6675 73.8664C25.1183 73.3017 25.5662 72.2748 25.7794 71.7953L25.7914 71.7681C26.6066 69.934 27.1007 68.8223 27.2231 66.7423C27.2714 65.9209 27.4788 64.1196 27.6975 63.1924M21.7625 75.6062C21.5064 75.8383 21.181 75.9821 20.7263 75.9821C20.5639 75.9821 20.4146 75.989 20.2842 75.9993M21.7625 75.6062C21.294 75.7646 20.7757 75.8909 20.4376 75.9661C20.3829 75.9782 20.3318 75.9893 20.2842 75.9993M20.2842 75.9993C19.6722 76.0477 19.4749 76.1702 20.2842 75.9993ZM27.6975 63.1924C27.8294 62.6328 27.9655 62.3916 28.0733 62.8764C28.6572 65.5043 27.9742 68.7065 27.7845 71.3622C27.7407 71.9759 27.5118 75.4927 27.5118 73.0947C27.5118 69.7841 27.6145 66.4895 27.6975 63.1924ZM27.6975 63.1924C27.6999 63.0951 27.7023 62.9979 27.7047 62.9007M27.7047 62.9007C27.6578 63.2525 27.5967 63.6047 27.5279 63.9832C27.3535 64.9421 26.9753 62.3772 26.9343 62.1866C26.5742 60.5128 26.4874 58.7685 26.0681 57.1175C26.0065 56.8752 25.6311 55.1206 25.5548 55.3209C24.9218 56.9825 25.505 59.8706 25.4264 61.6091C25.3359 63.6117 25.4571 66.0335 24.8971 67.9935C24.6359 68.9077 24.6244 66.105 24.6244 65.1542C24.6244 64.5286 24.5725 63.9103 24.4998 63.295M24.4998 63.295C24.33 61.858 24.0469 60.4375 24.0469 58.9783C24.0469 58.4543 23.919 56.9024 24.0629 57.4063C24.5003 58.9369 24.9536 60.2551 25.1377 61.8658C25.151 61.9825 25.2194 64.0398 25.1377 64.0153C24.9023 63.9447 24.6893 63.6691 24.4998 63.295ZM24.4998 63.295C24.0209 62.3499 23.6924 60.7762 23.5336 60.2937C23.4297 59.9784 23.323 59.6649 23.2143 59.3527M23.2143 59.3527C22.9752 58.6664 22.7265 57.9862 22.4778 57.3057M23.2143 59.3527C23.0771 58.6196 22.8672 57.8147 22.7315 57.3581C22.7268 57.3422 22.7205 57.323 22.7128 57.3007M23.2143 59.3527C23.478 60.7624 23.4727 61.9064 22.154 59.7964C21.697 59.0652 21.2148 58.3026 20.6965 57.5818M22.4778 57.3057C22.2717 56.7417 22.0657 56.1775 21.8653 55.6096C21.846 55.555 21.8284 55.5045 21.8124 55.458M22.4778 57.3057C22.2998 57.2877 22.1422 57.215 22.0257 57.0694C21.7913 56.7765 21.1961 56.6933 20.8707 56.3475C20.8131 56.2864 20.7769 56.2428 20.7562 56.2156M22.4778 57.3057C22.553 57.3133 22.6319 57.3112 22.7128 57.3007M21.8124 55.458C21.5705 54.7538 21.7005 54.9667 21.9307 55.4583M21.8124 55.458C21.8517 55.458 21.8912 55.4581 21.9307 55.4583M21.8124 55.458C21.1987 55.4578 20.6227 55.4813 20.2932 55.4813M21.9307 55.4583C22.1986 56.0303 22.602 56.9795 22.7128 57.3007M21.9307 55.4583C22.846 55.4633 23.815 55.5268 24.1592 55.8021C24.6241 56.1741 23.5554 57.1912 22.7128 57.3007M20.6965 57.5818C20.4329 57.2151 20.1599 56.8593 19.8761 56.524C19.7272 56.348 18.7766 55.8029 19.1382 56.1871C19.707 56.7914 20.3839 57.869 20.6965 57.5818ZM20.6965 57.5818C20.8059 57.4813 20.8707 57.2138 20.8707 56.7004C20.8707 56.4538 20.7955 56.2845 20.7562 56.2156M20.7562 56.2156C20.7304 56.1705 20.72 56.1684 20.7562 56.2156ZM12.4971 61.5449C11.4249 61.5449 10.4361 61.6877 9.46533 61.2562C9.09499 61.0916 8.69607 60.8621 8.28678 60.6808M8.28678 60.6808C7.91367 60.5154 7.53194 60.39 7.15538 60.39C6.53862 60.39 7.24615 61.1838 7.87724 60.9033C8.01629 60.8415 8.15211 60.7636 8.28678 60.6808ZM8.28678 60.6808C8.71711 60.4161 9.13562 60.1012 9.6097 60.1012M13.0746 59.235C12.8013 59.235 12.5647 59.2292 12.3581 59.2236M12.3581 59.2236C11.6615 59.2045 11.3062 59.1862 11.0317 59.3916M12.3581 59.2236C12.4382 58.8267 12.5551 58.4112 12.7224 58.1452M12.3581 59.2236C12.2891 59.5659 12.2474 59.8943 12.2244 60.1012C12.1525 60.7486 12.0777 61.7136 12.2726 62.347C12.3048 62.4518 12.4321 62.729 12.5773 62.9204M11.0317 59.3916C10.8172 59.5522 10.652 59.8495 10.4118 60.39C10.0183 61.2753 10.212 62.4039 10.9251 63.117C11.4066 63.5985 12.0426 63.3614 12.5773 62.9204M11.0317 59.3916C11.0364 58.5461 11.1458 57.5346 11.7592 57.5346C12.1839 57.5346 12.4966 57.7704 12.7224 58.1452M11.0317 59.3916C11.0294 59.8157 11.0534 60.1981 11.0534 60.39M12.5773 62.9204C12.7835 62.7503 12.9746 62.5498 13.1359 62.3486M12.5773 62.9204C12.7325 63.1249 12.9082 63.2313 13.0105 62.9245C13.0554 62.7897 13.0989 62.5911 13.1359 62.3486M13.1359 62.3486C13.3511 62.0802 13.5134 61.8103 13.5879 61.6091C14.085 60.267 14.5089 59.2953 13.6521 58.2244C13.2386 57.7075 12.9385 57.8017 12.7224 58.1452M13.1359 62.3486C13.3071 61.2276 13.3389 59.1685 12.7224 58.1452M11.9197 60.9674C11.9197 61.4682 12.0121 63.7796 12.6403 63.2397M12.6403 63.2397C12.6925 63.1948 12.7484 63.1302 12.8083 63.0432M12.6403 63.2397C12.5375 61.6736 12.6529 60.0985 12.9463 58.6735C12.9495 58.658 12.9528 58.6424 12.9561 58.6269M12.6403 63.2397C12.7801 65.3706 13.3241 67.4847 14.374 69.1806C14.8963 70.0243 15.6587 70.5725 16.3417 70.3346M12.8083 63.0432C12.8473 62.9866 12.8879 62.9205 12.9303 62.8443C13.5034 61.8127 13.6521 60.2574 13.6521 59.0906C13.6521 58.7596 13.452 58.6268 13.1726 58.6151M12.8083 63.0432C12.6467 61.5634 12.667 59.688 13.1726 58.6151M12.8083 63.0432C12.887 63.7638 13.0088 64.3906 13.1388 64.7853C13.4832 65.8313 14.1246 67.5045 15.0674 68.7703M13.1726 58.6151C13.1046 58.6122 13.0318 58.6165 12.9561 58.6269M13.1726 58.6151C13.4729 57.9778 13.9444 57.6237 14.6506 57.8035M12.9561 58.6269C12.5421 58.6838 12.0396 58.9222 11.7345 59.1599M12.9561 58.6269C13.173 57.6218 13.6899 56.7272 14.3917 56.2805M11.7345 59.1599C11.6305 59.2409 11.5494 59.3218 11.5026 59.3954C11.4354 59.501 11.3699 59.6171 11.3071 59.7415M11.7345 59.1599C11.7783 58.8879 11.8101 58.611 11.8227 58.3467M11.7345 59.1599C11.6499 59.6852 11.5202 60.1922 11.3967 60.5542M11.3071 59.7415C11.303 59.7497 11.2988 59.758 11.2947 59.7663M11.3071 59.7415C11.3584 59.9752 11.3866 60.2551 11.3967 60.5542M11.3071 59.7415C11.3066 59.7389 11.306 59.7363 11.3054 59.7337M11.2947 59.7663C10.82 60.7212 10.5049 62.1518 10.7807 63.117C11.042 64.0315 11.4472 62.0515 11.3967 60.5542M11.2947 59.7663C11.1565 60.1887 11.0534 60.5852 11.0534 60.8391C11.0534 61.2969 11.2188 61.0759 11.3967 60.5542M11.2947 59.7663C11.2983 59.7555 11.3018 59.7446 11.3054 59.7337M11.3054 59.7337C11.2768 59.6053 11.2412 59.491 11.1978 59.3954C10.2851 57.3874 9.89845 61.2597 9.89845 61.978C9.89845 62.0886 9.90181 62.192 9.90779 62.2879M11.3054 59.7337C11.4681 59.2415 11.676 58.7183 11.8227 58.3467M9.90779 62.2879C9.98178 63.4746 10.4558 63.5323 9.90779 62.2879ZM9.90779 62.2879C9.90471 62.2809 9.90159 62.2739 9.89845 62.2668C9.30561 60.9329 8.47309 61.1197 8.14994 62.2507C8.01623 62.7187 7.83746 62.356 7.65177 61.6534M7.65177 61.6534C7.20689 59.9702 6.72227 56.3365 6.72227 57.5025C6.72227 58.6523 6.60836 59.8032 6.94684 60.9033C7.17006 61.6287 7.40316 61.7904 7.65177 61.6534ZM7.65177 61.6534C8.04449 61.4369 8.47589 60.475 8.96805 59.8125C9.12137 59.6061 11.5072 56.9148 11.5667 56.9892C11.7882 57.266 11.8499 57.7771 11.8227 58.3467M11.8227 58.3467C11.9129 58.1181 11.9801 57.947 11.9993 57.8758M11.9993 57.8758C12.0097 57.8369 12.0059 57.8278 11.9838 57.8554C11.8938 57.968 11.9108 57.9597 11.9993 57.8758ZM11.9993 57.8758C12.3584 57.5349 13.8952 55.9459 14.2296 56.123C14.2918 56.1559 14.3455 56.2095 14.3917 56.2805M14.3917 56.2805C14.5811 56.5715 14.6446 57.1546 14.6506 57.8035M14.3917 56.2805C15.1024 55.8283 16.0025 55.8354 16.9727 56.6523C18.4172 57.8688 18.8913 59.4964 18.7877 61.1725M14.6506 57.8035C14.6603 58.8579 14.5183 60.0863 14.5183 60.5183C14.5183 60.7247 14.5316 60.8407 14.5548 60.8852M14.6506 57.8035C14.8463 57.8533 15.06 57.9442 15.293 58.0814M14.5548 60.8852C14.69 61.1436 15.1622 58.9796 15.32 58.0974M14.5548 60.8852C14.6721 59.8557 14.8875 58.7314 15.293 58.0814M14.5548 60.8852C14.5071 61.3048 14.4756 61.7087 14.4542 62.0582C14.3845 63.1969 14.2119 66.6463 15.0674 68.7703M15.32 58.0974C15.3249 58.0698 15.3296 58.0435 15.3339 58.0185M15.32 58.0974C15.4369 58.1675 15.5586 58.2492 15.6853 58.3431M15.32 58.0974C15.311 58.092 15.302 58.0866 15.293 58.0814M15.3339 58.0185C15.3511 57.9183 15.3631 57.8401 15.3685 57.7913C15.4518 57.0419 15.6448 56.2822 15.6733 57.5667C15.674 57.5987 15.6747 57.6307 15.6754 57.6627M15.3339 58.0185C15.4358 57.8679 15.5492 57.7466 15.6754 57.6627M15.3339 58.0185C15.32 58.0389 15.3064 58.0599 15.293 58.0814M15.6754 57.6627C15.68 57.8894 15.6832 58.1162 15.6853 58.3431M15.6754 57.6627C16.1467 57.3496 16.7966 57.5596 17.6945 58.7217C18.2532 59.4446 18.6022 60.2798 18.7877 61.1725M15.6853 58.3431C15.6974 59.6452 15.6733 60.9493 15.6733 62.2507V63.0925M15.6853 58.3431C15.775 58.4096 15.8673 58.4822 15.9621 58.5612C17.2824 59.6615 18.0563 61.3059 18.458 63.0249M15.6733 63.0925V64.2399C15.6733 63.8559 15.6702 63.4737 15.6733 63.0925ZM15.6733 63.0925C15.6792 62.3827 15.7069 61.6762 15.8177 60.9674C15.9837 59.9047 15.9118 57.9866 16.5396 60.1012C16.8032 60.9894 17.1791 66.4233 18.1276 63.9992C18.2527 63.6797 18.3638 63.3539 18.458 63.0249M18.458 63.0249C18.6331 62.4129 18.7495 61.7894 18.7877 61.1725M18.458 63.0249C18.6079 63.6663 18.7059 64.3181 18.7612 64.9559M18.7877 61.1725C19.0372 62.3737 18.9909 63.6791 18.7612 64.9559M16.3417 70.3346C16.4361 70.3017 16.529 70.2538 16.6195 70.1896M16.3417 70.3346C15.7683 70.062 15.3583 69.4928 15.0674 68.7703M16.3417 70.3346C16.6476 70.48 17.0001 70.5411 17.4058 70.496C17.4408 70.4921 17.4749 70.4857 17.5083 70.4769M16.6195 70.1896C16.8216 70.0463 17.012 69.8217 17.1812 69.5014C17.853 68.2299 18.4623 66.6171 18.7612 64.9559M16.6195 70.1896C16.0335 69.8833 15.5163 69.373 15.0674 68.7703M16.6195 70.1896C16.9 70.3362 17.1962 70.4361 17.5083 70.4769M18.7612 64.9559C18.7997 65.4005 18.8174 65.8383 18.8174 66.2611C18.8174 67.0071 18.6648 70.1727 17.5083 70.4769M17.5083 70.4769C17.6423 70.4945 17.7792 70.5012 17.9191 70.496C20.5574 70.3983 20.582 64.4058 20.582 62.6999" stroke="black" stroke-width="3" stroke-linecap="round"/>
</svg>
